:SAMPLES-PER-SECOND 30
:FRAME-RANGE 1-4244
:FULLY-SPECIFIED
:DEGREES
1592
root  31.7222 38.6689 14.43 -173.832 0.171936 179.751
RightUpLeg  -3.64648 -9.56992 -5.71992
RightLeg  20.0268 0.361183 -0.0135608
RightFoot  -21.1932 0.621731 8.86916
RightToes  -1.33073e-015 0 -3.6325e-017
Spine  2.57822 -2.9566 1.17953
Spine1  3.79774 -3.64125 2.29074
HEad  -4.67348 21.7558 -10.325
LeftShoulder1  0.910454 0.0681631 -22.0313
LeftArm  0.17202 11.8994 -46.2203
LeftForeArm  36.929 -10.6876 -9.79437
LeftHand  -0.0722626 4.29734 6.95975
RightShoulder  1.21778 0.719967 24.0562
RightArm  -20.1326 -4.41057 35.5325
RightForeArm  69.5357 -5.73283 6.00041
RightHand  0.0103391 -5.62049 -13.758
LeftUpLeg  -23.6048 4.70445 14.4172
LeftLeg  19.5898 8.0121 3.47548
LeftFoot  0.188338 1.07759 -10.6633
LeftToes  2.72522e-012 8.43823e-011 6.24977e-012
1593
root  31.4419 38.6357 14.1501 -173.591 -1.52141 179.666
RightUpLeg  -2.81669 -10.0203 -6.09974
RightLeg  19.4488 -0.718059 -0.392757
RightFoot  -21.2949 0.689432 9.55997
RightToes  -1.33073e-015 0 -3.6325e-017
Spine  2.51536 -2.84866 1.09265
Spine1  3.52911 -3.53037 2.17365
HEad  -4.3027 20.7313 -9.91974
LeftShoulder1  0.827045 0.382821 -22.2144
LeftArm  -1.29985 13.1514 -45.8351
LeftForeArm  37.0462 -10.4705 -9.70348
LeftHand  -0.10419 3.48639 5.27279
RightShoulder  1.18695 0.631749 23.939
RightArm  -20.775 -4.27664 35.4037
RightForeArm  66.2694 -5.80749 5.69793
RightHand  -0.0411915 -5.18107 -14.5724
LeftUpLeg  -24.345 5.03808 14.4307
LeftLeg  17.3685 8.74016 3.37377
LeftFoot  0.698655 1.05495 -10.0261
LeftToes  2.72522e-012 8.43823e-011 6.24977e-012
1594
root  31.1158 38.5812 13.8397 -173.365 -3.50778 179.574
RightUpLeg  -1.84874 -10.7032 -6.53032
RightLeg  18.9255 -1.90325 -0.765138
RightFoot  -21.4262 0.771 10.3645
RightToes  -1.33073e-015 0 -3.6325e-017
Spine  2.65358 -2.72149 0.935259
Spine1  3.15977 -3.38002 1.97154
HEad  -4.20981 19.2893 -9.30054
LeftShoulder1  0.754478 0.660941 -22.4593
LeftArm  -2.04439 14.0253 -45.1107
LeftForeArm  36.2091 -10.1898 -9.72681
LeftHand  -0.108768 3.39737 5.31859
RightShoulder  1.26591 0.887472 24.0023
RightArm  -21.5807 -4.14925 35.3502
RightForeArm  62.7308 -5.40585 5.39202
RightHand  -0.0707814 -4.96158 -15.4985
LeftUpLeg  -25.4285 6.64598 13.7218
LeftLeg  15.4579 9.21793 3.27906
LeftFoot  1.19417 1.11982 -10.2426
LeftToes  2.72522e-012 8.43823e-011 6.24977e-012
1595
root  30.7224 38.5179 13.48 -173.092 -5.72034 179.496
RightUpLeg  -0.626672 -10.7245 -6.8741
RightLeg  18.1074 -3.93275 -1.34479
RightFoot  -21.4632 0.871066 11.4511
RightToes  -1.33073e-015 0 -3.6325e-017
Spine  2.61134 -2.55245 0.95081
Spine1  3.1553 -3.13708 1.5186
HEad  -4.73947 17.2472 -8.62778
LeftShoulder1  0.741482 0.704446 -22.4354
LeftArm  -3.35031 14.638 -44.6709
LeftForeArm  36.3359 -9.63846 -9.77092
LeftHand  -0.11026 3.29297 5.34098
RightShoulder  1.27502 0.915473 24.0204
RightArm  -23.0012 -3.56222 35.8919
RightForeArm  59.2742 -4.62054 4.82699
RightHand  -0.136599 -4.48899 -16.0541
LeftUpLeg  -26.8198 8.60801 12.3384
LeftLeg  14.1194 10.7612 3.50353
LeftFoot  1.93699 1.22841 -10.6326
LeftToes  2.72522e-012 8.43823e-011 6.24977e-012
1596
root  30.2563 38.4131 13.0766 -172.678 -7.94157 179.294
RightUpLeg  0.446467 -11.0454 -7.44237
RightLeg  17.6254 -5.6585 -1.82484
RightFoot  -21.6467 1.01416 12.8333
RightToes  -1.33073e-015 0 -3.6325e-017
Spine  2.50658 -2.31773 0.890873
Spine1  3.23727 -2.79146 0.899447
HEad  -5.01212 15.0546 -7.9117
LeftShoulder1  0.689946 0.897603 -22.59
LeftArm  -4.29251 14.487 -43.7562
LeftForeArm  36.2867 -8.59327 -9.97795
LeftHand  -0.108013 3.29768 5.22202
RightShoulder  1.23849 0.807965 23.9094
RightArm  -24.7325 -2.64529 37.0353
RightForeArm  55.51 -3.76247 4.12207
RightHand  -0.202032 -4.04975 -16.5796
LeftUpLeg  -28.5138 10.6478 10.2175
LeftLeg  13.6434 13.3254 3.89538
LeftFoot  2.38092 1.28296 -10.7595
LeftToes  2.72522e-012 8.43823e-011 6.24977e-012
1597
root  29.7056 38.2536 12.6271 -172.155 -10.505 179.433
RightUpLeg  1.53351 -11.4983 -7.69137
RightLeg  17.2347 -7.52531 -2.28879
RightFoot  -21.8292 1.16672 14.2666
RightToes  -1.33073e-015 0 -3.6325e-017
Spine  2.29116 -2.20795 1.26183
Spine1  3.39076 -2.56756 0.246042
HEad  -5.08192 12.7992 -7.27913
LeftShoulder1  0.660799 0.974061 -22.2607
LeftArm  -6.56636 14.6268 -43.6267
LeftForeArm  37.1766 -7.32949 -9.94628
LeftHand  -0.114607 3.08544 5.12077
RightShoulder  1.31376 1.07134 23.8272
RightArm  -25.9877 -1.52964 38.0257
RightForeArm  51.116 -2.81939 3.66663
RightHand  -0.273161 -3.61331 -17.2402
LeftUpLeg  -30.6645 12.5679 7.745
LeftLeg  14.2129 15.2544 4.36644
LeftFoot  2.14582 1.27335 -10.8552
LeftToes  2.72522e-012 8.43823e-011 6.24977e-012
